Coordinates
version=1
nRows=24
nColumns=24
inDegrees=yes

Units are S.I. units (second, meters, Newtons, ...)
Angles are in degrees.

endheader
time	pelvis_tilt	pelvis_list	pelvis_rotation	pelvis_tx	pelvis_ty	pelvis_tz	hip_flexion_r	hip_adduction_r	hip_rotation_r	knee_angle_r	ankle_angle_r	subtalar_angle_r	mtp_angle_r	hip_flexion_l	hip_adduction_l	hip_rotation_l	knee_angle_l	ankle_angle_l	subtalar_angle_l	mtp_angle_l	lumbar_extension	lumbar_bending	lumbar_rotation
      2.42500000	      8.63739763	     -5.37100012	     -5.38693282	      0.93792145	      0.98592456	      0.03732911	    -18.38476455	     -5.14569347	     -9.23541170	    -38.40732065	    -12.75351343	      3.54807740	     25.14055121	     13.48538640	     -6.73744982	    -22.24605134	    -21.89687320	     -7.38509003	    -11.03736926	      9.77897030	    -19.39080567	     12.36236274	     50.80857017
      2.43000000	      8.69244760	     -5.40617547	     -5.06909881	      0.94451659	      0.98701900	      0.03595681	    -17.70884888	     -5.13728565	     -9.11837823	    -39.86649556	    -13.49689946	      3.17035415	     21.94004793	     13.09385954	     -6.58912718	    -21.96044401	    -21.96158545	     -6.95018264	    -11.07467039	      9.26727181	    -19.37107498	     12.49438579	     50.58417652
      2.43500000	      8.75607495	     -5.42487241	     -4.74720561	      0.95109580	      0.98816172	      0.03459337	    -17.02317659	     -5.13612561	     -9.03862634	    -41.31030385	    -14.06562160	      2.74608755	     18.69124003	     12.67390379	     -6.42409158	    -21.67163721	    -21.98075693	     -6.57441792	    -11.03747409	      8.79116776	    -19.35501301	     12.61291011	     50.35502445
      2.44000000	      8.77853032	     -5.49018896	     -4.45659127	      0.95756446	      0.98925791	      0.03329108	    -16.25579812	     -5.07227051	     -8.88665760	    -42.75721398	    -14.37946078	      2.42994247	     15.04752834	     12.30410430	     -6.32685360	    -21.39705249	    -22.02693717	     -6.13753823	    -11.04773117	      8.24264743	    -19.31244604	     12.78633520	     50.16820532
      2.44500000	      8.82120183	     -5.54801941	     -4.16143975	      0.96401610	      0.99041513	      0.03201582	    -15.50230658	     -5.00511229	     -8.77291941	    -44.16520588	    -14.51956605	      2.08286590	     11.53707945	     11.89379434	     -6.22168942	    -21.12049360	    -22.02736426	     -5.75959787	    -11.02647944	      7.79099978	    -19.28954931	     12.94685868	     49.96300268
      2.45000000	      8.86789752	     -5.61893266	     -3.86363334	      0.97042808	      0.99159471	      0.03074630	    -14.74361870	     -4.91292949	     -8.67901236	    -45.52875824	    -14.49154257	      1.75685970	      8.17266855	     11.46727065	     -6.13239640	    -20.83880312	    -22.00462831	     -5.38711179	    -10.99957007	      7.34496978	    -19.27085910	     13.13089668	     49.75532084
      2.45500000	      8.91605741	     -5.70802677	     -3.57438784	      0.97677464	      0.99280141	      0.02952170	    -13.97426837	     -4.79120888	     -8.59111896	    -46.84536877	    -14.31100614	      1.44594146	      5.08272731	     11.03209865	     -6.07176463	    -20.56436854	    -21.97195794	     -5.01529064	    -10.94847350	      6.88190006	    -19.26446436	     13.33387961	     49.57477299
      2.46000000	      8.97842287	     -5.79215935	     -3.26855255	      0.98310135	      0.99404537	      0.02828212	    -13.22183998	     -4.66740964	     -8.56869140	    -48.09857019	    -14.02916782	      1.08728171	      2.48802209	     10.56899948	     -6.00293156	    -20.27339408	    -21.89391685	     -4.71245765	    -10.88248233	      6.52306193	    -19.26702157	     13.54100810	     49.36565801
      2.46500000	      9.00167587	     -5.90627424	     -3.01240416	      0.98936418	      0.99524298	      0.02714222	    -12.40199679	     -4.51024087	     -8.49859393	    -49.31838707	    -13.56684919	      0.89036060	     -0.14862274	     10.14561468	     -5.98734556	    -20.03904887	    -21.83648091	     -4.35285668	    -10.85068807	      6.12375003	    -19.23892356	     13.77038727	     49.19955303
      2.47000000	      9.03007629	     -6.02653282	     -2.74118885	      0.99559995	      0.99646051	      0.02599495	    -11.59820717	     -4.33933783	     -8.49251004	    -50.43770081	    -13.29289621	      0.53554364	     -0.33099132	      9.70276102	     -5.97652848	    -19.78191055	    -21.72827589	     -4.09552163	    -10.80447508	      6.11878631	    -19.21060765	     14.01732671	     49.02408137
      2.47500000	      9.09598180	     -6.13885972	     -2.47305123	      1.00180644	      0.99772895	      0.02486466	    -10.82093154	     -4.18211640	     -8.53190848	    -51.54420752	    -12.39586607	      0.43775542	     -3.97091805	      9.21444231	     -5.96397574	    -19.56183967	    -21.62607587	     -3.71426978	    -10.67932023	      5.34417674	    -19.23242466	     14.25637376	     48.86420839
      2.48000000	      9.17509119	     -6.25584308	     -2.21634150	      1.00802194	      0.99902093	      0.02376505	    -10.07864451	     -4.02496822	     -8.60967543	    -52.51463543	    -11.87571548	      0.22765240	     -3.95038734	      8.68955671	     -5.95834144	    -19.35419230	    -21.47103333	     -3.48116443	    -10.64091645	      5.37029480	    -19.26515332	     14.50190295	     48.73242535
      2.48500000	      9.18543588	     -6.38264466	     -1.93671419	      1.01413389	      1.00020261	      0.02267798	     -9.23764218	     -3.84290773	     -8.74627802	    -53.47441039	    -10.97419826	      0.08103518	     -6.51649427	      8.26440033	     -5.97723551	    -19.11603454	    -21.35340570	     -3.18229540	    -10.48281280	      4.84463699	    -19.21572939	     14.76465689	     48.50282314
      2.49000000	      9.26033701	     -6.50995149	     -1.69860817	      1.02027417	      1.00147851	      0.02164556	     -8.48596975	     -3.67632590	     -8.88393684	    -54.29943351	    -10.31598820	     -0.06037002	     -6.45231199	      7.72924718	     -5.99687530	    -18.96026554	    -21.16430851	     -2.97023005	    -10.43796185	      4.86904060	    -19.25306698	     15.02021696	     48.37917937
      2.49500000	      9.25419534	     -6.63170306	     -1.44591701	      1.02637177	      1.00260246	      0.02060565	     -7.63932890	     -3.51643263	     -9.08524862	    -55.07190499	     -9.63497533	     -0.16189371	     -6.50067606	      7.30362237	     -6.02198949	    -18.76843700	    -21.01139857	     -2.73019659	    -10.29887479	      4.86182428	    -19.18315282	     15.27907792	     48.16437722
      2.50000000	      9.31821919	     -6.75427101	     -1.17855442	      1.03246028	      1.00382097	      0.01959002	     -6.88366790	     -3.35744847	     -9.34576017	    -55.75713788	     -8.63464524	     -0.16427698	     -8.39600803	      6.79013727	     -6.05147068	    -18.59629667	    -20.83654266	     -2.41143502	    -10.10333076	      4.11696938	    -19.19221589	     15.53644091	     47.96327580
      2.50500000	      9.38292067	     -6.87290526	     -0.96084796	      1.03854548	      1.00502948	      0.01865591	     -6.13282475	     -3.21036361	     -9.59440937	    -56.33728097	     -7.88833552	     -0.26949577	     -8.29672000	      6.25300590	     -6.08456732	    -18.49831214	    -20.62029799	     -2.24464498	    -10.01654364	      4.14211305	    -19.21412134	     15.78135047	     47.83972417
      2.51000000	      9.39061732	     -6.98190168	     -0.71533677	      1.04461060	      1.00610226	      0.01768668	     -5.33265262	     -3.08112492	     -9.91964356	    -56.83457308	     -7.13628466	     -0.26358282	     -8.21879285	      5.79305852	     -6.11334722	    -18.37187165	    -20.42372046	     -2.01409904	     -9.83697556	      4.16032368	    -19.15159130	     16.02272612	     47.59708523
      2.51500000	      9.42750417	     -7.08969978	     -0.47594527	      1.05066963	      1.00720757	      0.01675643	     -4.57748747	     -2.95516983	    -10.27550373	    -57.23209831	     -6.37442827	     -0.28735346	     -8.13548765	      5.29281139	     -6.14605107	    -18.27853816	    -20.20948651	     -1.82085036	     -9.68237601	      4.15587883	    -19.12297445	     16.26219674	     47.39809587
      2.52000000	      9.46124379	     -7.19679334	     -0.21918094	      1.05669112	      1.00826764	      0.01582382	     -3.83271833	     -2.83037793	    -10.67111747	    -57.53561097	     -5.61641920	     -0.26802596	     -8.04787538	      4.80562000	     -6.18276822	    -18.14953674	    -20.00253361	     -1.62631815	     -9.50011286	      4.12562350	    -19.09043873	     16.50397433	     47.16613110
      2.52500000	      9.49848128	     -7.29169096	      0.02650437	      1.06275096	      1.00930623	      0.01491840	     -3.11183232	     -2.72671101	    -11.10226878	    -57.74018056	     -4.86088933	     -0.26035484	     -7.93614061	      4.30148520	     -6.21149394	    -18.07530009	    -19.77446667	     -1.43412853	     -9.32763296	      4.09214399	    -19.05760248	     16.73165077	     46.94337560
      2.53000000	      9.53270100	     -7.38639130	      0.27605223	      1.06876964	      1.01029006	      0.01402177	     -2.39803495	     -2.62440160	    -11.55605322	    -57.85773273	     -4.12600329	     -0.22159709	     -7.79821065	      3.80716040	     -6.24456423	    -17.97994557	    -19.55437480	     -1.24028923	     -9.13884745	      4.04211709	    -19.01830692	     16.96086755	     46.70416083
      2.53500000	      9.55961193	     -7.47986370	      0.52466178	      1.07478679	      1.01124471	      0.01315676	     -1.69553549	     -2.52157770	    -12.02683700	    -57.87548789	     -3.41519327	     -0.17664881	     -7.61642788	      3.31607820	     -6.28109767	    -17.88321938	    -19.32359473	     -1.06178685	     -8.95084342	      3.96267833	    -18.96748903	     17.18434884	     46.45242990
      2.54000000	      9.60573600	     -7.56116143	      0.73229128	      1.08076175	      1.01217678	      0.01236520	     -1.01641179	     -2.43082505	    -12.47853653	    -57.82064913	     -2.69292890	     -0.20297217	     -7.45900731	      2.79835309	     -6.31041919	    -17.85159680	    -19.08234443	     -0.92762919	     -8.81748748	      3.93480299	    -18.95821609	     17.38682060	     46.28691028
